<svg width="786" height="587" viewBox="0 0 786 587" fill="none" xmlns="http://www.w3.org/2000/svg">
<g filter="url(#filter0_d_56_5)">
<mask id="path-1-inside-1_56_5" fill="white">
<path d="M194.744 0C217.388 0 235.744 18.3563 235.744 41V65.8613H740.911C763.555 65.8613 782 84.2177 782 106.861V538C782 560.644 763.644 579 741 579H45C22.3563 579 4 560.644 4 538V41C4 18.3563 22.3563 4.04865e-07 45 0H194.744Z"/>
</mask>
<path d="M194.744 0C217.388 0 235.744 18.3563 235.744 41V65.8613H740.911C763.555 65.8613 782 84.2177 782 106.861V538C782 560.644 763.644 579 741 579H45C22.3563 579 4 560.644 4 538V41C4 18.3563 22.3563 4.04865e-07 45 0H194.744Z" fill="#F7DEF3"/>
<path d="M235.744 41H236.744V41H235.744ZM235.744 65.8613H234.744V66.8613H235.744V65.8613ZM741 579V580V580V579ZM45 0V-1V-1V0ZM194.744 0V1C216.836 1 234.744 18.9086 234.744 41H235.744H236.744C236.744 17.804 217.94 -1 194.744 -1V0ZM235.744 41H234.744V65.8613H235.744H236.744V41H235.744ZM235.744 65.8613V66.8613H740.911V65.8613V64.8613H235.744V65.8613ZM740.911 65.8613V66.8613C763.005 66.8613 781 84.7728 781 106.861H782H783C783 83.6626 764.104 64.8613 740.911 64.8613V65.8613ZM782 106.861H781V538H782H783V106.861H782ZM782 538H781C781 560.091 763.091 578 741 578V579V580C764.196 580 783 561.196 783 538H782ZM741 579V578H45V579V580H741V579ZM45 579V578C22.9086 578 5 560.091 5 538H4H3C3 561.196 21.804 580 45 580V579ZM4 538H5V41H4H3V538H4ZM4 41H5C5 18.9086 22.9086 1 45 1V0V-1C21.804 -1 3 17.804 3 41H4ZM45 0V1H194.744V0V-1H45V0Z" fill="black" mask="url(#path-1-inside-1_56_5)"/>
</g>
<defs>
<filter id="filter0_d_56_5" x="0" y="0" width="786" height="587" filterUnits="userSpaceOnUse" color-interpolation-filters="sRGB">
<feFlood flood-opacity="0" result="BackgroundImageFix"/>
<feColorMatrix in="SourceAlpha" type="matrix" values="0 0 0 0 0 0 0 0 0 0 0 0 0 0 0 0 0 0 127 0" result="hardAlpha"/>
<feOffset dy="4"/>
<feGaussianBlur stdDeviation="2"/>
<feComposite in2="hardAlpha" operator="out"/>
<feColorMatrix type="matrix" values="0 0 0 0 0 0 0 0 0 0 0 0 0 0 0 0 0 0 0.25 0"/>
<feBlend mode="normal" in2="BackgroundImageFix" result="effect1_dropShadow_56_5"/>
<feBlend mode="normal" in="SourceGraphic" in2="effect1_dropShadow_56_5" result="shape"/>
</filter>
</defs>
</svg>
