<svg width="24" height="24" viewBox="0 0 24 24" fill="none" xmlns="http://www.w3.org/2000/svg">
<g clip-path="url(#clip0_56_178)">
<path d="M4.66659 3.99996H15.3333V10.5333H16.6666V3.99996C16.6666 3.64634 16.5261 3.3072 16.2761 3.05715C16.026 2.8071 15.6869 2.66663 15.3333 2.66663H4.66659C4.31296 2.66663 3.97382 2.8071 3.72378 3.05715C3.47373 3.3072 3.33325 3.64634 3.33325 3.99996V20C3.33325 20.3536 3.47373 20.6927 3.72378 20.9428C3.97382 21.1928 4.31296 21.3333 4.66659 21.3333H15.3333C15.6869 21.3333 16.026 21.1928 16.2761 20.9428C16.5261 20.6927 16.6666 20.3536 16.6666 20H4.66659V3.99996Z" fill="#0D2237"/>
<path d="M18.7734 11.52C18.6459 11.4108 18.4818 11.3538 18.314 11.3602C18.1463 11.3667 17.9871 11.4363 17.8684 11.555C17.7496 11.6737 17.6801 11.8329 17.6736 12.0007C17.6671 12.1685 17.7242 12.3325 17.8334 12.46L20.0868 14.6667H10.4201C10.2433 14.6667 10.0737 14.7369 9.94868 14.862C9.82366 14.987 9.75342 15.1566 9.75342 15.3334C9.75342 15.5102 9.82366 15.6798 9.94868 15.8048C10.0737 15.9298 10.2433 16 10.4201 16H20.0868L17.8334 18.3067C17.7636 18.3665 17.707 18.44 17.6669 18.5227C17.6269 18.6054 17.6044 18.6955 17.6009 18.7873C17.5973 18.8792 17.6128 18.9707 17.6463 19.0563C17.6798 19.1418 17.7307 19.2195 17.7957 19.2845C17.8606 19.3494 17.9383 19.4003 18.0239 19.4338C18.1094 19.4673 18.201 19.4828 18.2928 19.4792C18.3846 19.4757 18.4747 19.4532 18.5574 19.4132C18.6401 19.3732 18.7137 19.3165 18.7734 19.2467L22.6668 15.38L18.7734 11.52Z" fill="#0D2237"/>
</g>
<defs>
<clipPath id="clip0_56_178">
<rect width="24" height="24" fill="white"/>
</clipPath>
</defs>
</svg>
